<?xml version="1.0" encoding="utf-8"?>
<!-- Generator: Adobe Illustrator 24.1.0, SVG Export Plug-In . SVG Version: 6.00 Build 0)  -->
<svg version="1.1" id="Layer_1" xmlns="http://www.w3.org/2000/svg" xmlns:xlink="http://www.w3.org/1999/xlink" x="0px" y="0px"
	 viewBox="0 0 728 314.4" style="enable-background:new 0 0 728 314.4;" xml:space="preserve">
<style type="text/css">
	.st0{opacity:0.57;fill:#2A2B50;enable-background:new    ;}
</style>
<path class="st0" d="M727.9,249.5l-0.6-160.7c0,0,1.1-13-1.5-18.9c-3.4-8.1-8-15.7-13.6-22.5c-11-12.8-23.7-24-37.8-33.3
	C662,6,645.8-1.7,628.7,0.3c-13.4,1.6-23.6,8.7-31.9,15.9c-12.3,10.4-23.1,22.4-32.2,35.6c-2.7,4-5.3,8.1-9.8,11.2S543,68,537,66.3
	c-2.5-0.7-4.7-2-7.2-2.7c-9.2-2.5-18.4,2.9-27,6.1c-20.6,7.7-46.7,2.9-67.8-4.2s-41.4-16.6-64.9-18.3c-7.1-0.5-14.3-0.3-21.4,0.5V42
	c0-0.6-0.7-1.1-1.6-1.1l0,0c-0.9,0-1.6,0.5-1.6,1.1v5.5c-0.7,0.3-1.4,0.6-2.1,1l-0.4,0.1v-8.3c0-1.2-1.5-2.3-3.3-2.3h-0.1
	c-1.8,0-3.3,1-3.3,2.3v5.7c-0.7-0.4-1.4-0.7-2.1-1v-5.4c0-0.6-0.7-1.1-1.7-1.1l0,0c-0.9,0-1.7,0.5-1.7,1.1v6.4c0,0.5,0.5,1,1.2,1.1
	c0.4,0.3,0.8,0.5,1.3,0.7c0.5,0.2,0.9,0.4,1.4,0.5c0.4,0.2,0.8,0.3,1.2,0.4h0.4v1.2c-17.1,3.7-33.3,10.5-47.9,17.7
	c-23.9,11.8-46.8,25.6-75.3,31.4c-42.3,8.6-87.5-2.1-128.2-13.7c-21.5-6.2-85-19.4-85-19.4l0.2,248.4l727.4,0.1l0.3-30.2
	L727.9,249.5z"/>
</svg>
