<?xml version="1.0" encoding="utf-8"?>
<!-- Generator: Adobe Illustrator 24.1.0, SVG Export Plug-In . SVG Version: 6.00 Build 0)  -->
<svg version="1.1" id="Layer_1" xmlns="http://www.w3.org/2000/svg" xmlns:xlink="http://www.w3.org/1999/xlink" x="0px" y="0px"
	 viewBox="0 0 727.5 272.3" style="enable-background:new 0 0 727.5 272.3;" xml:space="preserve">
<style type="text/css">
	.st0{opacity:0.95;fill:#2A2B50;enable-background:new    ;}
</style>
<path class="st0" d="M727.5,72.2c0,0-45.7-10.3-76.4-23.6s-66.7-26.7-102.2-20.6c-24.4,4.2-44.9,17.3-70.2,17.7
	c-4.6,0-9.2-0.3-13.8-0.9v-1.1c0.2,0,0.3,0,0.5-0.1c0.5-0.1,1-0.2,1.5-0.4c0.6-0.2,1.1-0.4,1.7-0.7c0.6-0.2,1.1-0.5,1.6-0.8
	c0.9-0.2,1.5-0.7,1.5-1.4v-7.8c0-0.8-0.9-1.4-2.1-1.4l0,0c-1.1,0-2.1,0.6-2.1,1.4v6.7c-0.9,0.3-1.7,0.7-2.6,1.2v-7
	c0-1.5-1.8-2.8-4-2.8h-0.1c-2.2,0-4,1.2-4,2.8v10.2l-0.5-0.1c-0.8-0.5-1.7-0.9-2.6-1.3v-6.7c0-0.8-0.9-1.4-1.9-1.4l0,0
	c-1.1,0-1.9,0.6-1.9,1.4v6.9c-10.4-1.8-20.7-3.3-31-2c-11.2,1.4-20.8,6.1-29.5,11c-25,14.1-50.1,32.1-83.1,32.2
	c-25.7,0.1-48.4-11.3-64.7-24.3s-28.5-28.3-46.1-40.5s-43.3-21.6-68.4-18c-9.2,1.3-17.7,4.2-25.7,7.5C39.5,32.9,0,93.2,0,93.2
	l-0.2,179.7l726.9-0.5L727.5,72.2z"/>
	
</svg>
