<?xml version="1.0" encoding="utf-8"?>
<!-- Generator: Adobe Illustrator 24.1.0, SVG Export Plug-In . SVG Version: 6.00 Build 0)  -->
<svg version="1.1" id="Layer_1" xmlns="http://www.w3.org/2000/svg" xmlns:xlink="http://www.w3.org/1999/xlink" x="0px" y="0px"
	 viewBox="0 0 725.4 324.4" style="enable-background:new 0 0 725.4 324.4;" xml:space="preserve">
<style type="text/css">
	.st0{opacity:0.26;fill:#2A2B50;enable-background:new    ;}
</style>
<path class="st0" d="M0.3,324.4l724.8-0.1l0.3-273.4c0,0-120.1,13.2-140.5,19.4c-38.5,11.6-81.3,22.3-121.4,13.7
	c-27-5.8-48.7-19.5-71.3-31.4S343,30.1,314.9,32.2c-22.3,1.7-41.5,11.2-61.5,18.3c-7.3,2.6-14.8,4.7-22.4,6.2l0,0v-2.1h0.2
	c0.2,0,0.4-0.1,0.6-0.2l0.7-0.3c0.2-0.1,0.4-0.2,0.6-0.3c0.3,0,0.5-0.3,0.6-0.6v-3.2c0-0.3-0.4-0.6-0.8-0.6l0,0
	c-0.4,0-0.8,0.3-0.8,0.6v2.8c-0.3,0.1-0.7,0.3-1,0.5v-2.9c0-0.6-0.7-1.1-1.6-1.1l0,0c-0.9,0-1.6,0.5-1.6,1.1v4.2l-0.2-0.1
	c-0.3-0.2-0.7-0.4-1-0.5v-2.8c-0.1-0.4-0.4-0.6-0.8-0.6l0,0c-0.4,0-0.7,0.2-0.8,0.6v3.2c0,0.3,0.3,0.5,0.5,0.6
	c0.2,0.1,0.4,0.2,0.6,0.3l0.6,0.3c0.2,0.1,0.4,0.1,0.6,0.2c0.1,0,0.3,0,0.4,0v0.8c0,0.1,0,0.3,0.1,0.4h0.9
	c-13.6,2.3-27.5,2.3-39.5-2.4c-8.2-3.2-16.9-8.6-25.6-6.1c-2.4,0.7-4.4,2-6.9,2.7c-5.7,1.7-12.5-0.2-16.8-3.3s-6.8-7.2-9.3-11.2
	c-8.1-12.6-18.4-9.6-30.5-20.6C92.5,9,82.8,1.9,70.1,0.3C53.9-1.7,38.6,6,26.9,14.2C12.8,24.1,0,32.5,0,32.5L0.3,324.4z"/>
</svg>
