<?xml version="1.0" encoding="utf-8"?>
<!-- Generator: Adobe Illustrator 24.1.0, SVG Export Plug-In . SVG Version: 6.00 Build 0)  -->
<svg version="1.1" id="Layer_1" xmlns="http://www.w3.org/2000/svg" xmlns:xlink="http://www.w3.org/1999/xlink" x="0px" y="0px"
	 viewBox="0 0 726.6 251" style="enable-background:new 0 0 726.6 251;" xml:space="preserve">
<style type="text/css">
	.st0{fill:#2A2951;}
	.st1{fill:#2A2B50;}
</style>
<path class="st0" d="M260.6,51.6L260.6,51.6c-1.2-0.1-2.3,0.7-2.5,1.9v9.1c-1.2,0.5-2.3,1.1-3.4,1.8c-0.2,0.1-0.4,0.2-0.6,0.3V50.6
	c0-2.1-2.3-3.8-5.2-3.8h-0.1c-2.9,0-5.2,1.7-5.2,3.8V60c-1.1-0.6-2.2-1.1-3.3-1.6v-9.1c0-1-1.2-1.9-2.6-1.9h0
	c-1.5,0-2.6,0.9-2.6,1.9v10.6c0.1,1,0.9,1.7,1.9,1.8c0.6,0.4,1.3,0.8,2,1.1c0.7,0.3,1.4,0.6,2.2,0.9c0.6,0.3,1.3,0.5,1.9,0.6
	l0.6,0.1v6.9c0,0.5,0.1,0.9,0.4,1.4h9.8c0.2-0.4,0.3-0.9,0.4-1.4v-2.7c0.5,0,1,0,1.5-0.1c0.6-0.1,1.2-0.3,1.8-0.6
	c0.7-0.3,1.4-0.6,2-0.9c0.7-0.3,1.3-0.7,1.9-1.1c1-0.1,1.7-0.9,1.8-1.8V53.5C262.9,52.3,261.8,51.4,260.6,51.6z"/>
<path class="st0" d="M566.8,4.8L566.8,4.8c-1.1,0-2,0.8-2,1.9v9.1c-1,0.5-1.9,1.1-2.8,1.8l-0.5,0.3V3.8c-0.1-2.2-2-3.9-4.2-3.8
	c0,0,0,0,0,0h-0.1c-2.2-0.1-4.1,1.5-4.2,3.7c0,0,0,0,0,0v9.5c-0.9-0.6-1.8-1.1-2.7-1.6V2.5c-0.1-1.1-1-2-2.2-1.9l0,0
	c-1.1-0.1-2.1,0.8-2.2,1.9v10.6c0,0.9,0.7,1.6,1.6,1.8c0.5,0.4,1.1,0.8,1.7,1.1c0.6,0.3,1.2,0.6,1.8,0.9c0.5,0.3,1,0.5,1.6,0.6
	c0.2,0,0.3,0.1,0.5,0.1v6.9c0,0.5,0.1,0.9,0.3,1.4h8c0.2-0.4,0.3-0.9,0.3-1.4v-2.7c0.4,0,0.8,0,1.2-0.1c0.5-0.1,1-0.3,1.5-0.6
	c0.6-0.3,1.1-0.6,1.7-0.9c0.6-0.3,1.1-0.7,1.6-1.1c0.8-0.2,1.4-1,1.5-1.8V6.7C568.9,5.6,568,4.7,566.8,4.8
	C566.9,4.8,566.9,4.8,566.8,4.8z"/>
<path class="st0" d="M133.1,113.2L133.1,113.2c0.9,0,1.7,0.8,1.7,1.7v8.3c0.8,0.5,1.6,1,2.3,1.6l0.4,0.3v-12.8
	c0-1.9,1.6-3.4,3.5-3.4h0.1c1.9,0,3.5,1.5,3.5,3.4c0,0,0,0,0,0v8.5c0.7-0.5,1.4-1,2.2-1.4v-8.2c0-1,0.8-1.7,1.8-1.7c0,0,0,0,0,0l0,0
	c1,0,1.8,0.8,1.8,1.7c0,0,0,0,0,0v9.6c0,0.8-0.5,1.5-1.3,1.7c-0.4,0.4-0.9,0.7-1.4,1c-0.5,0.3-1,0.6-1.5,0.8
	c-0.4,0.2-0.8,0.4-1.3,0.5l-0.4,0.1v6.2c0,0.4-0.1,0.8-0.2,1.2h-6.6c-0.2-0.4-0.2-0.8-0.2-1.2v-2.4c-0.3,0-0.7,0-1-0.1
	c-0.4-0.1-0.8-0.3-1.2-0.5c-0.5-0.3-0.9-0.5-1.4-0.8c-0.5-0.3-0.9-0.6-1.3-1c-0.7-0.2-1.2-0.9-1.2-1.7V115
	C131.3,114,132,113.2,133.1,113.2C133,113.2,133,113.2,133.1,113.2z"/>
<path class="st1" d="M0.2,179.2c13.3-5.8,26.2-12.3,38.9-19.4c17-9.8,31.5-23.3,53.8-26c17.1-2.1,36.2,2.8,51.6-2.6
	c9.8-3.4,15.5-10.1,21.4-16.3c13-13.3,27.9-24.7,44.1-33.9c11.2-6.4,25.4-12.4,39.9-10.3c17.8,2.6,25.9,15.5,34.8,25.9
	c11.3,13.2,28.5,24.6,50.2,29.9s48,3.6,65.5-6.2c4-2.2,7.6-4.9,12.7-5.9c4.4-0.9,9.2-0.2,13.8-0.4c18.5-0.8,28.6-14,35.8-25.1
	c7.4-11.5,15.6-22.5,24.3-33c13.3-16,32.8-33.3,60.8-34c16.9-0.4,32.8,5.6,44.3,13.7s19.3,18,27.3,27.6
	c24.2,29.1,58.9,57.2,91.9,82.4c4.8,3.7,9.9,7.4,12.5,12c2.3,4,2.5,8.4,2.6,12.7c0.8,21.9-0.5,58,0.3,79.9
	c-24,1.5-726.6,0.2-726.6,0.2L0.2,179.2z"/>
</svg>
